<?xml version="1.0" encoding="utf-8"?>
<!-- Generator: Adobe Illustrator 23.0.3, SVG Export Plug-In . SVG Version: 6.00 Build 0)  -->
<svg version="1.1" id="Layer_1" xmlns="http://www.w3.org/2000/svg" xmlns:xlink="http://www.w3.org/1999/xlink" x="0px" y="0px"
	 width="206.667px" height="78.667px" viewBox="0 0 206.667 78.667" enable-background="new 0 0 206.667 78.667"
	 xml:space="preserve">
<style type="text/css">
	.st0{fill:url(#SVGID_1_);}
	.st1{fill:url(#SVGID_2_);}
	.st2{fill:#273471;}
	.st3{fill:none;stroke:#231F20;stroke-width:0.1825;stroke-miterlimit:10;}
	.st4{fill:#0F4E94;}
</style>
<radialGradient id="SVGID_1_" cx="160.3351" cy="26.0959" r="42.237" gradientUnits="userSpaceOnUse">
	<stop  offset="1.226990e-02" style="stop-color:#00ADDA"/>
	<stop  offset="0.3497" style="stop-color:#0051A3"/>
	<stop  offset="0.6933" style="stop-color:#19124B"/>
	<stop  offset="1" style="stop-color:#18104A"/>


</radialGradient>
<path class="st0" d="M162.1,23.8L152,28.2l9-6.8l-8-4.1l8.8,1.9c-0.2-0.3-0.3-0.4-0.3-0.4C155.8,9.2,148,5.6,148,5.6h-1
	c-1.4,0.1-1.1,1.6-1.1,1.6c8.1,27.2,2.6,55.9,2.6,55.9c-0.2,1,0.1,1.2,0.5,1.2c0.5,0.1,1-0.4,1-0.4c10.4-9.6,15.6-18,15.6-18
	c1.6-9.1,0.1-17.1-1.4-21.6l-2.9,8.2L162.1,23.8z"/>
<radialGradient id="SVGID_2_" cx="164.9611" cy="19.9108" r="17.3812" fx="160.3265" fy="20.0633" gradientTransform="matrix(0.8723 -0.4889 0.4839 0.8633 11.4278 83.3774)" gradientUnits="userSpaceOnUse">
	<stop  offset="0" style="stop-color:#B1D362"/>
	<stop  offset="0.1876" style="stop-color:#97C24F"/>
	<stop  offset="0.3695" style="stop-color:#84B542"/>
	<stop  offset="0.4969" style="stop-color:#7DB13D"/>
	<stop  offset="0.5628" style="stop-color:#72A93B"/>
	<stop  offset="0.679" style="stop-color:#549537"/>
	<stop  offset="0.8308" style="stop-color:#257430"/>
	<stop  offset="0.8387" style="stop-color:#227230"/>
</radialGradient>
<path class="st1" d="M177,10.9c-7.4-2.8-13.8-4.1-21.3-4.8c-1.6-0.2-2.7-0.3-4.4-0.3c4.8,3,8.9,7.3,11.8,12.2c0,0,0.1,0.1,0.2,0.4
	l2.9-8.1l-0.9,8.7l10.1-4.4l-8.6,6.5l7.8,4l-9.1-2c1.1,3.1,2.3,7.5,2.5,13.1c0.1,2.3,0.1,4.5-0.3,6.6c5.6-9.1,10-16.8,11.5-28.2
	C179.6,11.6,178.3,11.4,177,10.9z"/>
<g>
	<path class="st2" d="M25.6,34.5C24.6,38.3,22.8,40,20,40h-7.3V14.6c0-2.4,0.1-3,4.1-3h0.1V9.4l-0.1,0c-1.4,0.2-3.9,0.3-6.9,0.3
		c-3,0-5.5-0.1-6.9-0.3l-0.2,0v2.2h0.1c3.6,0,3.9,0.4,3.9,3v23.2c0,2.6-0.3,3-3.9,3H2.8v2.2H3c0,0,0.1,0,0.2,0
		c0.2,0,0.6-0.1,1.3-0.1c1-0.1,2.6-0.1,4.9-0.1h17.1l1.3-8.2L25.6,34.5L25.6,34.5z"/>
	<path class="st2" d="M48.5,36.8c-1.7,1.9-4,3-5.9,3c-4.8,0-7-3.9-7.1-7.8h13.7v-0.1c0-5.8-3.1-8.9-8.7-8.9c-4.8,0-10,4-10,10.5
		c0,5.9,3.8,9.7,9.7,9.7c3.6,0,7.4-2.2,9.6-5.5l0.1-0.1L48.5,36.8L48.5,36.8z M40,24.8c2.5,0,3.7,1.8,3.9,5.4h-8.4
		C35.6,27.7,36.5,24.8,40,24.8z"/>
	<path class="st2" d="M72.4,24c-0.4-0.3-0.9-0.7-1.6-0.7c-1.5,0-2.8,1-3.8,2c-1.8-1.3-4-2-6.1-2c-4.2,0-8.4,2.5-8.4,7.2
		c0,2.8,1.5,5.2,4,6.4c-1.2,0.9-4,3.4-4,5.4c0,1.4,1,2.4,2.7,2.8c-0.2,0.2-0.5,0.5-0.8,0.8c-1.3,1.1-3,2.6-3,3.9c0,2.5,4.4,5,8.7,5
		c4.1,0,11.7-1.8,11.7-8.4c0-5.1-6.2-5.2-10.8-5.2c-2.5,0-4.7,0-4.7-0.9c0-0.8,1-1.9,1.6-2.6l0.1-0.2c0.8,0.3,2,0.4,3,0.4
		c5.9,0,8.6-3.6,8.6-7.1c0-1.2-0.6-3.4-1.5-4.3c0.3-0.4,0.9-0.8,1.5-0.8c0.9,0,1,1,1,1.4l0,0.1l0.2,0c0.3,0,0.5-0.1,0.8-0.1
		c0.3,0,0.6,0,0.9,0.1l0.2,0L72.4,24L72.4,24z M64.9,45.9c4.3,0.2,4.9,1.2,4.9,2.1c0,1.8-2.8,4.3-8.1,4.3c-3,0-6.4-1.4-6.4-3.4
		c0-1,0.7-2.4,1.4-3.3L64.9,45.9z M60.7,25.2c3.1,0,4.2,3.9,4.2,6.4c0,2.9-1.3,4.7-3.4,4.7c-3.3,0-4.2-4-4.2-6.1
		C57.2,27.9,58.1,25.2,60.7,25.2z"/>
	<path class="st2" d="M91.8,36.8c-1.7,1.9-4,3-5.9,3c-4.8,0-7-3.9-7.1-7.8h13.7v-0.1c0-5.8-3.1-8.9-8.7-8.9c-4.8,0-10,4-10,10.5
		c0,5.9,3.8,9.7,9.7,9.7c3.6,0,7.4-2.2,9.6-5.5l0.1-0.1L91.8,36.8L91.8,36.8z M83.4,24.8c2.5,0,3.8,1.8,3.9,5.4h-8.4
		C78.9,27.7,79.9,24.8,83.4,24.8z"/>
	<path class="st2" d="M115.8,38.9V29c0-3.5-2.6-6-6.4-6c-1,0-2.8,0.1-4,1.1l-3.1,2.3l-0.2-3.5l-0.2,0c-1.7,0.5-3.7,0.8-5.7,1
		c-0.6,0.1-1.1,0.1-1.7,0.2l-0.1,0v1.3h0.1c2.3,0,3,0.1,3,2.3v11.1c0,1.9-0.6,2.3-3.2,2.3h-0.1v1.7l0.1,0c1.1-0.2,3.1-0.2,5.5-0.2
		c2.5,0,4.4,0.1,5.5,0.2l0.2,0v-1.7h-0.1c-2.4,0-3-0.4-3-2.3V28c1.5-1,3.2-2.1,5.2-2.1c2.1,0,3.1,1.4,3.1,4v9c0,1.9-0.5,2.3-2.9,2.3
		h-0.1v1.7l0.2,0c1-0.2,2.9-0.2,5.3-0.2c2.4,0,4.3,0.1,5.3,0.2l0.2,0v-1.7h-0.1C116.5,41.2,115.8,40.9,115.8,38.9z"/>
	<path class="st2" d="M142.9,40.7c-2.6,0-3.1-0.2-3.1-2.3c0-9,0-20.2,0-29.2l0-0.2l-0.2,0c-2.4,0.6-5,0.9-7.7,0.9h-0.1v1.6h0.1
		c2.3,0,3,0.1,3,2.3v10.6c-1.6-1-3.3-1.5-5.2-1.5c-5.6,0-10.2,4.9-10.2,10.9c0,5.6,3.4,9.3,8.5,9.3c1.2,0,2.3-0.3,3.1-0.7l4.1-2.4
		l0.7,3h0.2c0.1,0,0.4,0,0.8-0.1c1-0.1,2.9-0.4,6.1-0.6l0.1,0v-1.6H142.9z M134.9,27.5V38c-1.4,1.2-2.9,1.8-4.7,1.8
		c-3.3,0-5.4-2.9-5.4-7.4c0-4.7,2.9-7.6,5.5-7.6C132.4,24.8,133.8,25.7,134.9,27.5z"/>
</g>
<path class="st2" d="M29,10.7c-1.2-0.1-2.2-0.2-3-0.2c0,0.9,0,2.1,0,3.2c0,0.5,0,1.2,0,1.5c0,1.6,0,3.1,0.1,4.5
	c-0.3,0-0.7-0.1-1-0.1c-0.4,0-0.7,0-1,0.1c0.1-1.4,0.2-3,0.2-4.5c0-0.4,0-1,0-1.5c0-1.1,0-2.4-0.1-3.2c-0.9,0-2.3,0.1-3.1,0.2
	c0-0.3,0.1-0.8,0.1-1.2c1.3,0,2.7,0.1,3.9,0.1c1.3,0,2.6,0,4-0.1C29,9.8,29,10.4,29,10.7z"/>
<path class="st2" d="M38.5,13.8c0,0.5,0,1.1,0,1.5c0,1.3,0,3,0.1,4.6c-0.3,0-0.7-0.1-1-0.1c-0.3,0-0.7,0-1,0.1
	c0.1-1.6,0.2-3.4,0.2-4.7c-0.9,0-1.6,0-2.3,0c-0.7,0-1.5,0-2.4,0c0,1.2,0,3.2,0.1,4.7c-0.3,0-0.7-0.1-1-0.1c-0.3,0-0.7,0-1,0.1
	c0.1-1.4,0.2-3.3,0.2-4.5c0-0.5,0-1,0-1.5c0-1-0.1-3-0.2-4.3c0.4,0.1,0.7,0.1,1,0.1c0.3,0,0.6,0,1-0.1C32,11.1,32,12.9,32,14.1
	c0.9,0,1.7,0,2.4,0c0.7,0,1.5,0,2.3,0c0-1.3,0-3.1-0.2-4.6c0.3,0,0.7,0.1,1,0.1c0.3,0,0.6,0,1-0.1C38.5,10.9,38.5,12.8,38.5,13.8z"
	/>
<path class="st2" d="M46.6,19.8c-1.1,0-2,0-2.8,0c-0.9,0-2,0-3.2,0c0.1-1.6,0.2-3.6,0.2-4.9c0-0.4,0-1,0-1.5c0-1.1,0-2.7-0.2-3.9
	c1,0,2.2,0,3,0c0.8,0,1.7,0,2.8,0c0,0.6-0.1,0.8-0.1,1.2c-1.1-0.2-2.7-0.2-3.7-0.2c0,1-0.1,2.5-0.1,3.6c1,0,2.6,0,3.4-0.1
	c0,0.5-0.1,0.8-0.1,1.2c-1.2-0.1-2.3-0.1-3.3-0.1c0,1,0,2.7,0.1,3.7c1,0,2.8,0,4.2-0.1C46.7,19.1,46.6,19.4,46.6,19.8z"/>
<path class="st2" d="M87.8,57.2c0,1.1,0,2,0,3c-1.5,0.5-3.5,0.6-5.4,0.6c-4.3,0-7.1-2.3-7.1-7.5c0-4.3,2.4-7.4,7.6-7.4
	c2.1,0,3.9,0.4,5,0.9c-0.3,0.7-0.5,1.1-0.8,1.9c-1.2-1.1-2.6-1.5-4.3-1.5c-2.8,0-4.8,1.9-4.8,6c0,4.5,2,6.4,4.9,6.4
	c0.8,0,1.9-0.1,2.4-0.4c0-0.8,0-1.7,0-2.5c0-0.8,0-1.8-0.2-2.7c0.4,0.1,1,0.1,1.4,0.1c0.5,0,0.9,0,1.4-0.1
	C87.8,55.1,87.8,56.3,87.8,57.2z"/>
<path class="st2" d="M100.1,60.5c-0.4,0-1,0.1-1.5,0.1c-0.5-1.9-1.4-4.3-2.1-5.3c-0.6-0.8-1.2-1.3-2.1-1.3c-0.4,0-0.6,0-0.9,0
	c0,1.4,0,4.5,0.2,6.6c-0.5,0-0.9-0.1-1.4-0.1c-0.5,0-1,0-1.5,0.1c0.2-2,0.3-4.8,0.3-6.9c0-0.5,0-1.4,0-2.1c0-1.7-0.1-4-0.3-5.6
	c0.7,0,1.1,0.1,1.7,0.1c0.7,0,1.9-0.1,2.6-0.1c3,0,5.1,0.9,5.1,3.5c0,2.4-1.9,3.6-3.1,3.8v0.1c0.5,0.1,1,0.5,1.4,0.9
	c0.5,0.6,0.9,1.3,1.3,2.2c0.4,0.9,0.7,1.8,1.1,2.6c0.2,0.5,0.4,1,0.7,1.4C101.2,60.6,100.6,60.5,100.1,60.5z M94.8,47.4
	c-0.5,0-0.8,0-1.2,0c-0.1,1.4-0.1,3.8-0.1,5.4c0.4,0,0.9,0,1.3,0c1.9,0,2.9-1,2.9-3C97.8,48.1,96.7,47.4,94.8,47.4z"/>
<path class="st2" d="M109.1,60.8c-4.4,0-7-2.6-7-7.4c0-4.3,2.6-7.5,7-7.5c4.5,0,7,3.2,7,7.5C116.1,57.5,113.7,60.8,109.1,60.8z
	 M109,47.1c-2.9,0-4.3,2.7-4.3,6.3c0,3.5,1.4,6.1,4.5,6.1c2.8,0,4.3-2.5,4.3-6.3C113.4,50,112.1,47.1,109,47.1z"/>
<path class="st2" d="M129.7,51.3c0,0.7,0,1.3,0,1.9c0,0.8,0,1.9-0.1,3.2c-0.3,2.8-2.2,4.4-5.6,4.4c-3.7,0-5.5-1.4-5.7-4.4
	c-0.1-1.4-0.1-2.4-0.1-3.3c0-0.6,0-1.2,0-1.9c0-1.2-0.1-3.5-0.3-5.3c0.5,0.1,1,0.1,1.5,0.1c0.4,0,0.8,0,1.4-0.1
	c-0.1,1.8-0.2,3.5-0.2,5c0,0.5,0,1.3,0,1.8c0,0.9,0,2.7,0,2.7c0,2.4,0.7,4,3.4,4c2.2,0,3.3-1.4,3.3-4c0,0,0-1.4,0-2.6
	c0-0.5,0-1.3,0-1.8c0-1.5-0.1-3.3-0.2-5c0.5,0.1,0.9,0.1,1.3,0.1c0.4,0,0.8,0,1.3-0.1C129.8,47.8,129.7,49.8,129.7,51.3z"/>
<path class="st2" d="M137.4,55c-0.5,0-2.3-0.1-2.7-0.1l0.2-1.4c0.2,0.1,1.6,0.1,1.9,0.1c2,0,3-1,3-3.1c0-2.2-1.2-3-3.3-3
	c-0.4,0-0.9,0-1.3,0c0,0.9-0.1,2.8-0.1,4.4c0,0.9,0,1.9,0,2.8c0,2,0,3.9,0.2,5.9c-0.5-0.1-0.9-0.1-1.4-0.1c-0.4,0-0.9,0-1.5,0.1
	c0.1-1.8,0.2-4,0.2-5.8c0-0.7,0-2.1,0-2.8c0-1.8-0.1-4.1-0.3-5.9c0.5,0,1.6,0,2,0c0.8,0,2.1,0,2.8,0c3,0,5.1,1.4,5.1,4.1
	C142.4,53.3,140.4,55,137.4,55z"/>
<g>
	<path class="st2" d="M141,57.3c1,0,1.8,0.8,1.8,1.8c0,1-0.8,1.8-1.8,1.8c-1,0-1.8-0.8-1.8-1.8C139.2,58.1,140,57.3,141,57.3
		L141,57.3z M141,57.7c-0.8,0-1.4,0.6-1.4,1.4c0,0.8,0.6,1.4,1.4,1.4c0.8,0,1.4-0.6,1.4-1.4C142.4,58.3,141.8,57.7,141,57.7
		L141,57.7z M140.7,60.1h-0.4v-1.8c0.2,0,0.4-0.1,0.7-0.1c0.3,0,0.5,0.1,0.6,0.1c0.1,0.1,0.2,0.2,0.2,0.4c0,0.2-0.2,0.4-0.4,0.4v0
		c0.2,0.1,0.3,0.2,0.3,0.4c0.1,0.3,0.1,0.4,0.1,0.4h-0.4c-0.1-0.1-0.1-0.2-0.1-0.4c0-0.2-0.1-0.3-0.4-0.3h-0.2V60.1z M140.7,59.1
		h0.2c0.2,0,0.4-0.1,0.4-0.3c0-0.2-0.1-0.3-0.4-0.3c-0.1,0-0.2,0-0.2,0V59.1z"/>
</g>
<g>
	<path class="st4" d="M2.6,70.9L4.5,66h0.7l2,4.9H6.5l-0.6-1.5h-2l-0.5,1.5H2.6z M4,68.9h1.7l-0.5-1.4c-0.2-0.4-0.3-0.8-0.3-1
		c-0.1,0.3-0.2,0.6-0.3,0.9L4,68.9z"/>
	<path class="st4" d="M10.7,70.9V66h0.6v4.3h2.4v0.6H10.7z"/>
	<path class="st4" d="M15.3,70.9V66H16v4.9H15.3z"/>
	<path class="st4" d="M17.9,70.9V66h0.7l2.6,3.8V66h0.6v4.9h-0.7l-2.6-3.9v3.9H17.9z"/>
	<path class="st4" d="M27,69.2l0.6,0.2c-0.1,0.5-0.4,0.9-0.7,1.2c-0.4,0.3-0.8,0.4-1.3,0.4c-0.5,0-1-0.1-1.3-0.3
		c-0.3-0.2-0.6-0.5-0.8-0.9c-0.2-0.4-0.3-0.8-0.3-1.3c0-0.5,0.1-1,0.3-1.3c0.2-0.4,0.5-0.7,0.8-0.9c0.4-0.2,0.8-0.3,1.2-0.3
		c0.5,0,0.9,0.1,1.2,0.4c0.3,0.2,0.6,0.6,0.7,1.1L27,67.5c-0.1-0.4-0.3-0.6-0.5-0.8c-0.2-0.2-0.5-0.2-0.8-0.2
		c-0.4,0-0.7,0.1-0.9,0.3s-0.4,0.4-0.5,0.7c-0.1,0.3-0.2,0.6-0.2,0.9c0,0.4,0.1,0.8,0.2,1.1s0.3,0.5,0.6,0.7
		c0.3,0.2,0.5,0.2,0.8,0.2c0.4,0,0.7-0.1,0.9-0.3C26.8,69.9,26.9,69.6,27,69.2z"/>
	<path class="st4" d="M29,68.5c0-0.8,0.2-1.5,0.7-1.9c0.4-0.5,1-0.7,1.7-0.7c0.5,0,0.9,0.1,1.2,0.3s0.6,0.5,0.8,0.9s0.3,0.8,0.3,1.3
		c0,0.5-0.1,0.9-0.3,1.3c-0.2,0.4-0.5,0.7-0.9,0.9c-0.4,0.2-0.8,0.3-1.2,0.3c-0.5,0-0.9-0.1-1.2-0.3c-0.4-0.2-0.6-0.5-0.8-0.9
		S29,69,29,68.5z M29.7,68.5c0,0.6,0.2,1.1,0.5,1.4c0.3,0.3,0.7,0.5,1.2,0.5c0.5,0,0.9-0.2,1.2-0.5c0.3-0.3,0.5-0.8,0.5-1.5
		c0-0.4-0.1-0.7-0.2-1s-0.3-0.5-0.6-0.7s-0.6-0.2-0.9-0.2c-0.5,0-0.9,0.2-1.2,0.5S29.7,67.8,29.7,68.5z"/>
	<path class="st4" d="M35.2,70.9V66h0.6v4.3h2.4v0.6H35.2z"/>
	<path class="st4" d="M39.8,70.9V66h0.7l2.6,3.8V66h0.6v4.9H43l-2.6-3.9v3.9H39.8z"/>
	<path class="st4" d="M48.2,70.9V66h0.6v4.9H48.2z"/>
	<path class="st4" d="M50.7,70.9V66h0.7l2.6,3.8V66h0.6v4.9h-0.7l-2.6-3.9v3.9H50.7z"/>
	<path class="st4" d="M57.8,70.9L55.9,66h0.7l1.3,3.6c0.1,0.3,0.2,0.6,0.3,0.8c0.1-0.3,0.2-0.5,0.3-0.8l1.3-3.6h0.7l-1.9,4.9H57.8z"
		/>
	<path class="st4" d="M61.7,70.9V66h3.5v0.6h-2.9v1.5h2.7v0.6h-2.7v1.7h3v0.6H61.7z"/>
	<path class="st4" d="M66.8,69.3l0.6-0.1c0,0.2,0.1,0.4,0.2,0.6c0.1,0.2,0.3,0.3,0.5,0.4c0.2,0.1,0.5,0.1,0.8,0.1
		c0.2,0,0.5,0,0.7-0.1c0.2-0.1,0.3-0.2,0.4-0.3c0.1-0.1,0.1-0.3,0.1-0.4c0-0.2,0-0.3-0.1-0.4c-0.1-0.1-0.2-0.2-0.4-0.3
		c-0.1-0.1-0.4-0.1-0.9-0.2c-0.5-0.1-0.8-0.2-0.9-0.3c-0.2-0.1-0.4-0.3-0.5-0.5C67,67.7,67,67.5,67,67.3c0-0.2,0.1-0.5,0.2-0.7
		c0.1-0.2,0.3-0.4,0.6-0.5s0.6-0.2,0.9-0.2c0.4,0,0.7,0.1,1,0.2s0.5,0.3,0.6,0.5c0.1,0.2,0.2,0.5,0.2,0.8l-0.6,0
		c0-0.3-0.1-0.5-0.3-0.7c-0.2-0.2-0.5-0.2-0.9-0.2c-0.4,0-0.7,0.1-0.9,0.2c-0.2,0.1-0.3,0.3-0.3,0.5c0,0.2,0.1,0.3,0.2,0.4
		c0.1,0.1,0.5,0.2,1,0.3c0.5,0.1,0.9,0.2,1.1,0.3c0.3,0.1,0.5,0.3,0.6,0.5c0.1,0.2,0.2,0.4,0.2,0.7c0,0.3-0.1,0.5-0.2,0.7
		c-0.1,0.2-0.4,0.4-0.6,0.5c-0.3,0.1-0.6,0.2-0.9,0.2c-0.4,0-0.8-0.1-1.1-0.2c-0.3-0.1-0.5-0.3-0.7-0.6S66.8,69.7,66.8,69.3z"/>
	<path class="st4" d="M73.5,70.9v-4.3h-1.6V66h3.9v0.6h-1.6v4.3H73.5z"/>
	<path class="st4" d="M77.2,70.9V66h1l1.2,3.5c0.1,0.3,0.2,0.6,0.2,0.7c0.1-0.2,0.1-0.4,0.3-0.8L81,66h0.9v4.9h-0.6v-4.1l-1.4,4.1
		h-0.6l-1.4-4.2v4.2H77.2z"/>
	<path class="st4" d="M83.6,70.9V66h3.5v0.6h-2.9v1.5H87v0.6h-2.7v1.7h3v0.6H83.6z"/>
	<path class="st4" d="M88.9,70.9V66h0.7l2.6,3.8V66h0.6v4.9h-0.7l-2.6-3.9v3.9H88.9z"/>
	<path class="st4" d="M95.9,70.9v-4.3h-1.6V66h3.9v0.6h-1.6v4.3H95.9z"/>
	<path class="st4" d="M105.5,69.2l0.6,0.2c-0.1,0.5-0.4,0.9-0.7,1.2c-0.4,0.3-0.8,0.4-1.3,0.4c-0.5,0-1-0.1-1.3-0.3
		c-0.3-0.2-0.6-0.5-0.8-0.9c-0.2-0.4-0.3-0.8-0.3-1.3c0-0.5,0.1-1,0.3-1.3c0.2-0.4,0.5-0.7,0.8-0.9c0.4-0.2,0.8-0.3,1.2-0.3
		c0.5,0,0.9,0.1,1.2,0.4c0.3,0.2,0.6,0.6,0.7,1.1l-0.6,0.2c-0.1-0.4-0.3-0.6-0.5-0.8c-0.2-0.2-0.5-0.2-0.8-0.2
		c-0.4,0-0.7,0.1-0.9,0.3s-0.4,0.4-0.5,0.7c-0.1,0.3-0.2,0.6-0.2,0.9c0,0.4,0.1,0.8,0.2,1.1s0.3,0.5,0.6,0.7
		c0.3,0.2,0.5,0.2,0.8,0.2c0.4,0,0.7-0.1,0.9-0.3C105.3,69.9,105.4,69.6,105.5,69.2z"/>
	<path class="st4" d="M107.5,68.5c0-0.8,0.2-1.5,0.7-1.9c0.4-0.5,1-0.7,1.7-0.7c0.5,0,0.9,0.1,1.2,0.3s0.6,0.5,0.8,0.9
		s0.3,0.8,0.3,1.3c0,0.5-0.1,0.9-0.3,1.3c-0.2,0.4-0.5,0.7-0.9,0.9c-0.4,0.2-0.8,0.3-1.2,0.3c-0.5,0-0.9-0.1-1.2-0.3
		c-0.4-0.2-0.6-0.5-0.8-0.9S107.5,69,107.5,68.5z M108.2,68.5c0,0.6,0.2,1.1,0.5,1.4c0.3,0.3,0.7,0.5,1.2,0.5c0.5,0,0.9-0.2,1.2-0.5
		c0.3-0.3,0.5-0.8,0.5-1.5c0-0.4-0.1-0.7-0.2-1s-0.3-0.5-0.6-0.7s-0.6-0.2-0.9-0.2c-0.5,0-0.9,0.2-1.2,0.5S108.2,67.8,108.2,68.5z"
		/>
	<path class="st4" d="M113.7,70.9V66h1l1.2,3.5c0.1,0.3,0.2,0.6,0.2,0.7c0.1-0.2,0.1-0.4,0.3-0.8l1.2-3.4h0.9v4.9h-0.6v-4.1
		l-1.4,4.1h-0.6l-1.4-4.2v4.2H113.7z"/>
	<path class="st4" d="M120.2,70.9V66h1.8c0.3,0,0.6,0,0.7,0c0.2,0,0.4,0.1,0.6,0.2c0.2,0.1,0.3,0.3,0.4,0.5c0.1,0.2,0.1,0.4,0.1,0.7
		c0,0.4-0.1,0.8-0.4,1.1c-0.3,0.3-0.7,0.4-1.4,0.4h-1.3v2H120.2z M120.8,68.3h1.3c0.4,0,0.7-0.1,0.9-0.2c0.2-0.2,0.3-0.4,0.3-0.7
		c0-0.2-0.1-0.4-0.2-0.5c-0.1-0.1-0.2-0.2-0.4-0.3c-0.1,0-0.3,0-0.6,0h-1.3V68.3z"/>
	<path class="st4" d="M124.4,70.9l1.9-4.9h0.7l2,4.9h-0.7l-0.6-1.5h-2l-0.5,1.5H124.4z M125.8,68.9h1.7l-0.5-1.4
		c-0.2-0.4-0.3-0.8-0.3-1c-0.1,0.3-0.2,0.6-0.3,0.9L125.8,68.9z"/>
	<path class="st4" d="M130.3,70.9V66h0.7l2.6,3.8V66h0.6v4.9h-0.7l-2.6-3.9v3.9H130.3z"/>
	<path class="st4" d="M137.3,70.9v-2.1l-1.9-2.8h0.8l1,1.5c0.2,0.3,0.3,0.6,0.5,0.8c0.1-0.3,0.3-0.5,0.5-0.9l1-1.4h0.8l-2,2.8v2.1
		H137.3z"/>
</g>
</svg>
